<?xml version="1.0" encoding="utf-8"?>
<svg viewBox="0 0 100 100" xmlns="http://www.w3.org/2000/svg" xmlns:bx="https://boxy-svg.com">
  <rect y="42.903" width="14.65" height="14.65" style="stroke: rgb(0, 0, 0); fill: none;" x="6" transform="matrix(0, 1, -1, 0, 100.283508, 0.5285)" bx:origin="-9.108533 -19.825667"/>
  <rect x="24.005" y="42.903" width="14.65" height="14.65" style="stroke: rgb(0, 0, 0); fill: none;" transform="matrix(0, 1, -1, 0, 100.283508, 0.5285)" bx:origin="-9.108533 -19.825667"/>
  <rect x="42.301" y="42.903" width="14.65" height="14.65" style="stroke: rgb(0, 0, 0); fill: none;" transform="matrix(0, 1, -1, 0, 100.283508, 0.5285)" bx:origin="-9.108533 -19.825667"/>
  <rect x="60.598" y="42.903" width="14.65" height="14.65" style="stroke: rgb(0, 0, 0); fill: none;" transform="matrix(0, 1, -1, 0, 100.283508, 0.5285)" bx:origin="-9.108533 -19.825667"/>
  <rect x="78.749" y="42.903" width="14.65" height="14.65" style="stroke: rgb(0, 0, 0); fill: none;" transform="matrix(0, 1, -1, 0, 100.283508, 0.5285)" bx:origin="-9.108533 -19.825667"/>
  <rect y="42.903" width="14.65" height="14.65" style="stroke: rgb(0, 0, 0); fill: none;" x="6" transform="matrix(0, 1, -1, 0, 119.195496, 0.5285)" bx:origin="-9.108533 -19.825667"/>
  <rect x="24.005" y="42.903" width="14.65" height="14.65" style="stroke: rgb(0, 0, 0); fill: none;" transform="matrix(0, 1, -1, 0, 119.195496, 0.5285)" bx:origin="-9.108533 -19.825667"/>
  <rect x="42.301" y="42.903" width="14.65" height="14.65" style="stroke: rgb(0, 0, 0); fill: none;" transform="matrix(0, 1, -1, 0, 119.195496, 0.5285)" bx:origin="-9.108533 -19.825667"/>
  <rect x="60.598" y="42.903" width="14.65" height="14.65" style="stroke: rgb(0, 0, 0); fill: none;" transform="matrix(0, 1, -1, 0, 119.195496, 0.5285)" bx:origin="-9.108533 -19.825667"/>
  <rect x="78.749" y="42.903" width="14.65" height="14.65" style="stroke: rgb(0, 0, 0); fill: none;" transform="matrix(0, 1, -1, 0, 119.195496, 0.5285)" bx:origin="-9.108533 -19.825667"/>
  <rect y="42.903" width="14.65" height="14.65" style="stroke: rgb(0, 0, 0); fill: none;" x="6" transform="matrix(0, 1, -1, 0, 81.45829, 0.5285)" bx:origin="-9.108533 -19.825667"/>
  <rect x="24.005" y="42.903" width="14.65" height="14.65" style="stroke: rgb(0, 0, 0); fill: none;" transform="matrix(0, 1, -1, 0, 81.45829, 0.5285)" bx:origin="-9.108533 -19.825667"/>
  <rect x="42.301" y="42.903" width="14.65" height="14.65" style="stroke: rgb(0, 0, 0); fill: none;" transform="matrix(0, 1, -1, 0, 81.45829, 0.5285)" bx:origin="-9.108533 -19.825667"/>
  <rect x="60.598" y="42.903" width="14.65" height="14.65" style="stroke: rgb(0, 0, 0); fill: none;" transform="matrix(0, 1, -1, 0, 81.45829, 0.5285)" bx:origin="-9.108533 -19.825667"/>
  <rect x="78.749" y="42.903" width="14.65" height="14.65" style="stroke: rgb(0, 0, 0); fill: none;" transform="matrix(0, 1, -1, 0, 81.45829, 0.5285)" bx:origin="-9.108533 -19.825667"/>
  <rect y="42.903" width="14.65" height="14.65" style="stroke: rgb(0, 0, 0); fill: none;" x="6" transform="matrix(0, 1, -1, 0, 62.767689, 0.5285)" bx:origin="-9.108533 -19.825667"/>
  <rect x="24.005" y="42.903" width="14.65" height="14.65" style="stroke: rgb(0, 0, 0); fill: none;" transform="matrix(0, 1, -1, 0, 62.767689, 0.5285)" bx:origin="-9.108533 -19.825667"/>
  <rect x="42.301" y="42.903" width="14.65" height="14.65" style="stroke: rgb(0, 0, 0); fill: none;" transform="matrix(0, 1, -1, 0, 62.767689, 0.5285)" bx:origin="-9.108533 -19.825667"/>
  <rect x="60.598" y="42.903" width="14.65" height="14.65" style="stroke: rgb(0, 0, 0); fill: none;" transform="matrix(0, 1, -1, 0, 62.767689, 0.5285)" bx:origin="-9.108533 -19.825667"/>
  <rect x="78.749" y="42.903" width="14.65" height="14.65" style="stroke: rgb(0, 0, 0); fill: none;" transform="matrix(0, 1, -1, 0, 62.767689, 0.5285)" bx:origin="-9.108533 -19.825667"/>
  <rect y="42.903" width="14.65" height="14.65" style="stroke: rgb(0, 0, 0); fill: none;" x="6" transform="matrix(0, 1, -1, 0, 137.708099, 0.5285)" bx:origin="-9.108533 -19.825667"/>
  <rect x="24.005" y="42.903" width="14.65" height="14.65" style="stroke: rgb(0, 0, 0); fill: none;" transform="matrix(0, 1, -1, 0, 137.708099, 0.5285)" bx:origin="-9.108533 -19.825667"/>
  <rect x="42.301" y="42.903" width="14.65" height="14.65" style="stroke: rgb(0, 0, 0); fill: none;" transform="matrix(0, 1, -1, 0, 137.708099, 0.5285)" bx:origin="-9.108533 -19.825667"/>
  <rect x="60.598" y="42.903" width="14.65" height="14.65" style="stroke: rgb(0, 0, 0); fill: none;" transform="matrix(0, 1, -1, 0, 137.708099, 0.5285)" bx:origin="-9.108533 -19.825667"/>
  <rect x="78.749" y="42.903" width="14.65" height="14.65" style="stroke: rgb(0, 0, 0); fill: none;" transform="matrix(0, 1, -1, 0, 137.708099, 0.5285)" bx:origin="-9.108533 -19.825667"/>
</svg>