<svg xmlns="http://www.w3.org/2000/svg" viewBox="0 0 512 512">
<g>
	<g>
		<path d="M425.567,28.444c-5.236,0-8.382,4.161-8.382,9.397v85.418h-67.002c-5.236,0-8.85,4.633-8.85,9.869v75.464h-76.951
			c-5.236,0-8.382,4.105-8.382,9.341v75.992h-76.428c-5.236,0-8.905,4.165-8.905,9.402v75.932H93.715
			c-5.236,0-8.382,4.633-8.382,9.869v75.464H0v18.963h93.715c5.236,0,10.581-3.858,10.581-9.094v-76.24h75.275
			c5.236,0,10.058-3.858,10.058-9.094v-76.24h74.752c5.236,0,10.581-4.325,10.581-9.561v-75.772h75.22
			c5.236,0,10.113-4.385,10.113-9.622v-75.712h65.271c5.236,0,10.581-3.858,10.581-9.094V47.407H512V28.444H425.567z"/>
	</g>
</g>
</svg>
